<svg width="400" height="308" viewBox="0 0 400 308" fill="none" xmlns="http://www.w3.org/2000/svg">
<path d="M92.1036 213.154L123.073 164.349L53.7161 120.152L17.8984 176.598L75.2652 213.154H92.1036Z" fill="#F0F0F0"/>
<path d="M135.99 228.379H59.2777V212.904H135.99V228.379ZM60.274 227.381H134.994V213.903H60.274V227.381Z" fill="#3F3D56"/>
<path d="M126.526 225.634C129.277 225.634 131.507 223.399 131.507 220.642C131.507 217.885 129.277 215.65 126.526 215.65C123.774 215.65 121.544 217.885 121.544 220.642C121.544 223.399 123.774 225.634 126.526 225.634Z" fill="#9FB8AD"/>
<path d="M112.578 225.634C115.329 225.634 117.559 223.399 117.559 220.642C117.559 217.885 115.329 215.65 112.578 215.65C109.827 215.65 107.596 217.885 107.596 220.642C107.596 223.399 109.827 225.634 112.578 225.634Z" fill="#9FB8AD"/>
<path d="M98.6301 225.634C101.381 225.634 103.611 223.399 103.611 220.642C103.611 217.885 101.381 215.65 98.6301 215.65C95.879 215.65 93.6488 217.885 93.6488 220.642C93.6488 223.399 95.879 225.634 98.6301 225.634Z" fill="#9FB8AD"/>
<path d="M84.6824 225.634C87.4335 225.634 89.6638 223.399 89.6638 220.642C89.6638 217.885 87.4335 215.65 84.6824 215.65C81.9313 215.65 79.7011 217.885 79.7011 220.642C79.7011 223.399 81.9313 225.634 84.6824 225.634Z" fill="#9FB8AD"/>
<path d="M70.7347 225.634C73.4858 225.634 75.716 223.399 75.716 220.642C75.716 217.885 73.4858 215.65 70.7347 215.65C67.9836 215.65 65.7534 217.885 65.7534 220.642C65.7534 223.399 67.9836 225.634 70.7347 225.634Z" fill="#9FB8AD"/>
<path d="M227.148 56.4084V18.47H246.077V0H153.425V92.8493H232.628V83.7712C232.628 82.079 232.96 80.4033 233.607 78.8398C234.253 77.2764 235.2 75.8558 236.394 74.6592C237.588 73.4626 239.006 72.5134 240.566 71.8658C242.126 71.2182 243.798 70.8849 245.487 70.8849H246.077V56.4084H227.148Z" fill="#F0F0F0"/>
<path d="M329.763 239.611H267.995V252.59H329.763V239.611Z" fill="#9FB8AD"/>
<path d="M343.213 175.715H252.553V187.695H343.213V175.715Z" fill="#F0F0F0"/>
<path d="M387.547 307.002H0V308H387.547V307.002Z" fill="#3F3D56"/>
<path d="M358.747 308H245.487C241.945 307.996 238.55 306.584 236.046 304.075C233.542 301.566 232.134 298.163 232.13 294.615V83.7712C232.134 80.2224 233.542 76.8201 236.046 74.3107C238.55 71.8013 241.945 70.3898 245.487 70.3857H358.747C362.289 70.3898 365.684 71.8013 368.188 74.3107C370.692 76.8201 372.101 80.2224 372.105 83.7712V294.615C372.101 298.163 370.692 301.566 368.188 304.075C365.684 306.584 362.289 307.996 358.747 308ZM245.487 71.3841C242.209 71.3879 239.068 72.6941 236.75 75.0163C234.433 77.3386 233.13 80.4871 233.126 83.7712V294.615C233.13 297.899 234.433 301.047 236.75 303.369C239.068 305.692 242.209 306.998 245.487 307.002H358.747C362.025 306.998 365.167 305.692 367.484 303.369C369.801 301.047 371.105 297.899 371.108 294.615V83.7712C371.105 80.4871 369.801 77.3386 367.484 75.0163C365.167 72.6941 362.025 71.3879 358.747 71.3841H245.487Z" fill="#3F3D56"/>
<path d="M288.667 80.3695C288.076 80.3695 287.499 80.1939 287.007 79.8648C286.516 79.5357 286.132 79.0679 285.906 78.5206C285.68 77.9733 285.621 77.3711 285.736 76.7901C285.851 76.2091 286.136 75.6754 286.554 75.2565C286.972 74.8376 287.505 74.5524 288.084 74.4368C288.664 74.3212 289.265 74.3805 289.811 74.6072C290.357 74.8339 290.824 75.2178 291.153 75.7104C291.481 76.2029 291.656 76.782 291.656 77.3744C291.655 78.1685 291.34 78.9298 290.78 79.4913C290.22 80.0528 289.46 80.3687 288.667 80.3695ZM288.667 75.3776C288.273 75.3776 287.888 75.4947 287.561 75.7141C287.233 75.9336 286.977 76.2454 286.827 76.6103C286.676 76.9751 286.636 77.3766 286.713 77.7639C286.79 78.1513 286.98 78.5071 287.259 78.7863C287.537 79.0656 287.892 79.2557 288.279 79.3328C288.665 79.4098 289.066 79.3703 289.43 79.2192C289.794 79.068 290.105 78.8121 290.324 78.4837C290.543 78.1554 290.66 77.7693 290.66 77.3744C290.659 76.845 290.449 76.3374 290.076 75.9631C289.702 75.5887 289.196 75.3782 288.667 75.3776Z" fill="#3F3D56"/>
<path d="M318.057 76.8752H296.14V77.8736H318.057V76.8752Z" fill="#3F3D56"/>
<path d="M363.138 84.8622V124.797C352.569 124.797 342.433 120.589 334.96 113.1C327.487 105.611 323.288 95.4536 323.288 84.8622H363.138Z" fill="#9FB8AD"/>
<path d="M363.636 294.522H240.598V84.363H363.636V294.522ZM241.594 293.523H362.64V85.3614H241.594V293.523Z" fill="#3F3D56"/>
<path opacity="0.1" d="M334.247 122.301C341.675 122.301 347.696 116.267 347.696 108.823C347.696 101.38 341.675 95.3452 334.247 95.3452C326.819 95.3452 320.797 101.38 320.797 108.823C320.797 116.267 326.819 122.301 334.247 122.301Z" fill="black"/>
<path d="M332.254 123.799C339.682 123.799 345.704 117.765 345.704 110.321C345.704 102.877 339.682 96.8428 332.254 96.8428C324.826 96.8428 318.804 102.877 318.804 110.321C318.804 117.765 324.826 123.799 332.254 123.799Z" fill="#9FB8AD"/>
<path d="M265.006 92.8493H246.077V99.8379H265.006V92.8493Z" fill="#3F3D56"/>
<path d="M275.467 159.242H256.538V166.23H275.467V159.242Z" fill="#3F3D56"/>
<path d="M348.194 185.199H256.538V172.22H348.194V185.199ZM257.534 184.201H347.198V173.219H257.534V184.201Z" fill="#3F3D56"/>
<path d="M343.213 213.653H252.553V225.634H343.213V213.653Z" fill="#F0F0F0"/>
<path d="M275.467 197.18H256.538V204.169H275.467V197.18Z" fill="#3F3D56"/>
<path d="M348.194 223.138H256.538V210.159H348.194V223.138ZM257.534 222.139H347.198V211.157H257.534V222.139Z" fill="#3F3D56"/>
<path d="M333.748 249.595H270.984V235.617H333.748V249.595ZM271.98 248.596H332.752V236.616H271.98V248.596Z" fill="#3F3D56"/>
<path d="M345.704 180.207C345.704 181.235 345.387 182.238 344.797 183.078C344.207 183.919 343.373 184.557 342.408 184.905C341.443 185.253 340.394 185.293 339.405 185.022C338.416 184.75 337.535 184.179 336.882 183.387L336.877 183.382C336.401 182.803 336.061 182.125 335.882 181.396C335.704 180.667 335.692 179.908 335.847 179.174C336.002 178.44 336.32 177.75 336.777 177.157C337.235 176.563 337.82 176.08 338.489 175.744C339.159 175.408 339.895 175.228 340.644 175.216C341.392 175.205 342.134 175.362 342.813 175.678C343.492 175.993 344.092 176.457 344.567 177.037C345.043 177.616 345.382 178.296 345.559 179.024C345.559 179.025 345.559 179.026 345.56 179.026C345.56 179.027 345.56 179.027 345.561 179.028C345.561 179.028 345.562 179.029 345.562 179.029C345.563 179.029 345.563 179.029 345.564 179.029C345.656 179.415 345.703 179.811 345.704 180.207Z" fill="#9FB8AD"/>
<path opacity="0.1" d="M345.704 180.207C345.704 181.235 345.387 182.238 344.797 183.078C344.207 183.919 343.373 184.557 342.408 184.905C341.443 185.253 340.394 185.293 339.405 185.022C338.416 184.75 337.535 184.179 336.882 183.387L336.877 183.382C336.785 182.996 336.738 182.601 336.737 182.204C336.737 181.177 337.054 180.174 337.644 179.333C338.234 178.493 339.068 177.855 340.033 177.507C340.998 177.159 342.046 177.118 343.036 177.39C344.025 177.661 344.906 178.232 345.559 179.024C345.559 179.025 345.559 179.026 345.56 179.026C345.56 179.027 345.56 179.027 345.561 179.028C345.561 179.028 345.562 179.029 345.562 179.029C345.563 179.029 345.563 179.029 345.564 179.029C345.656 179.415 345.703 179.811 345.704 180.207Z" fill="black"/>
<path d="M342.715 188.195C345.466 188.195 347.696 185.96 347.696 183.203C347.696 180.446 345.466 178.211 342.715 178.211C339.964 178.211 337.734 180.446 337.734 183.203C337.734 185.96 339.964 188.195 342.715 188.195Z" fill="#9FB8AD"/>
<path d="M345.704 218.146C345.704 219.174 345.387 220.176 344.797 221.017C344.207 221.858 343.373 222.495 342.408 222.843C341.443 223.191 340.394 223.232 339.405 222.96C338.416 222.689 337.535 222.118 336.882 221.326L336.877 221.321C336.401 220.742 336.061 220.063 335.882 219.334C335.704 218.606 335.692 217.846 335.847 217.112C336.002 216.378 336.32 215.689 336.777 215.095C337.235 214.501 337.82 214.018 338.489 213.683C339.159 213.347 339.895 213.166 340.644 213.155C341.392 213.143 342.134 213.301 342.813 213.616C343.492 213.931 344.092 214.396 344.567 214.975C345.043 215.555 345.382 216.234 345.559 216.963C345.559 216.963 345.559 216.964 345.56 216.965C345.56 216.965 345.56 216.966 345.561 216.966C345.561 216.967 345.562 216.967 345.562 216.967C345.563 216.968 345.563 216.968 345.564 216.968C345.656 217.354 345.703 217.749 345.704 218.146Z" fill="#9FB8AD"/>
<path opacity="0.1" d="M345.704 218.146C345.704 219.174 345.387 220.176 344.797 221.017C344.207 221.857 343.373 222.495 342.408 222.843C341.443 223.191 340.394 223.232 339.405 222.96C338.416 222.689 337.535 222.118 336.882 221.326L336.877 221.321C336.785 220.935 336.738 220.539 336.737 220.143C336.737 219.115 337.054 218.112 337.644 217.272C338.234 216.431 339.068 215.793 340.033 215.445C340.998 215.098 342.046 215.057 343.036 215.328C344.025 215.6 344.906 216.171 345.559 216.963C345.559 216.963 345.559 216.964 345.56 216.965C345.56 216.965 345.56 216.966 345.561 216.966C345.561 216.967 345.562 216.967 345.562 216.967C345.563 216.968 345.563 216.968 345.564 216.968C345.656 217.354 345.703 217.749 345.704 218.146Z" fill="black"/>
<path d="M342.715 226.133C345.466 226.133 347.696 223.898 347.696 221.141C347.696 218.384 345.466 216.149 342.715 216.149C339.964 216.149 337.734 218.384 337.734 221.141C337.734 223.898 339.964 226.133 342.715 226.133Z" fill="#9FB8AD"/>
<path d="M259.029 23.9611H233.126V49.919H259.029V23.9611Z" fill="#F0F0F0"/>
<path d="M334.247 42.9303C333.064 42.9303 331.909 42.579 330.926 41.9208C329.943 41.2626 329.176 40.327 328.724 39.2324C328.272 38.1378 328.153 36.9334 328.384 35.7714C328.614 34.6094 329.184 33.542 330.02 32.7043C330.856 31.8665 331.921 31.296 333.08 31.0649C334.24 30.8337 335.442 30.9524 336.534 31.4058C337.626 31.8591 338.56 32.6269 339.217 33.612C339.874 34.5971 340.224 35.7553 340.224 36.94C340.222 38.5282 339.592 40.0508 338.471 41.1739C337.351 42.2969 335.831 42.9285 334.247 42.9303ZM334.247 31.9481C333.261 31.9481 332.298 32.2409 331.479 32.7894C330.66 33.338 330.021 34.1176 329.644 35.0297C329.267 35.9419 329.169 36.9456 329.361 37.9139C329.553 38.8822 330.028 39.7717 330.724 40.4699C331.421 41.168 332.308 41.6434 333.275 41.836C334.241 42.0286 335.243 41.9298 336.153 41.552C337.063 41.1741 337.841 40.5343 338.388 39.7134C338.936 38.8925 339.228 37.9274 339.228 36.94C339.226 35.6166 338.701 34.3477 337.767 33.4119C336.833 32.4761 335.567 31.9497 334.247 31.9481Z" fill="#3F3D56"/>
<path d="M202.74 126.295H189.788V113.316H202.74V126.295ZM190.785 125.297H201.744V114.314H190.785V125.297Z" fill="#3F3D56"/>
<path d="M400 223.138H387.049V210.159H400V223.138ZM388.045 222.139H399.004V211.157H388.045V222.139Z" fill="#3F3D56"/>
<path d="M144.46 136.112L146.682 137.312L154.245 141.397L166.454 147.989L173.569 134.759C174.24 133.516 174.658 132.153 174.802 130.748C174.946 129.342 174.812 127.922 174.407 126.569C174.003 125.215 173.336 123.955 172.444 122.86C171.553 121.766 170.455 120.858 169.214 120.189C166.56 118.753 163.52 118.198 160.532 118.604C157.544 119.011 154.761 120.357 152.585 122.45L152.582 122.453C151.511 123.484 150.608 124.675 149.904 125.985L144.46 136.112Z" fill="#2F2E41"/>
<path d="M177.783 271.028L176.292 287.471L170.698 288.219L166.969 269.533L177.783 271.028Z" fill="#FFB8B8"/>
<path d="M169.206 288.219C169.206 288.219 176.292 284.482 177.783 287.471C177.783 287.471 176.665 296.44 181.14 297.562C185.615 298.683 187.479 306.531 181.14 307.278C174.8 308.025 170.698 305.783 168.46 305.783C166.223 305.783 168.46 297.935 168.46 297.935L169.206 288.219Z" fill="#2F2E41"/>
<path d="M132.661 271.028L134.152 287.471L139.746 288.219L143.475 269.533L132.661 271.028Z" fill="#FFB8B8"/>
<path d="M141.238 288.219C141.238 288.219 134.152 284.482 132.661 287.471C132.661 287.471 133.779 296.44 129.304 297.562C124.829 298.683 122.965 306.531 129.304 307.278C135.644 308.025 139.746 305.783 141.983 305.783C144.221 305.783 141.983 297.935 141.983 297.935L141.238 288.219Z" fill="#2F2E41"/>
<path d="M163.24 139.109C168.594 139.109 172.935 134.759 172.935 129.393C172.935 124.027 168.594 119.677 163.24 119.677C157.885 119.677 153.544 124.027 153.544 129.393C153.544 134.759 157.885 139.109 163.24 139.109Z" fill="#FFB8B8"/>
<path d="M132.288 148.452L140.119 160.785L149.442 160.037L164.731 161.158C164.731 161.158 166.175 158.266 167.353 155.452C167.998 154.046 168.494 152.577 168.833 151.068C169.206 148.452 163.985 145.836 163.985 145.836C163.985 145.836 163.78 145.799 163.437 145.717C162.982 145.608 162.281 145.429 161.513 145.167C159.779 144.577 157.694 143.575 157.273 142.099C156.527 139.483 162.121 135.746 162.121 135.746L155.408 129.393C155.408 129.393 149.445 137.693 142.203 139.584C141.784 139.695 141.358 139.783 140.928 139.846C140.906 139.849 140.887 139.853 140.865 139.857C133.033 140.978 132.288 148.452 132.288 148.452Z" fill="#FFB8B8"/>
<path d="M136.39 145.089L132.288 148.452C132.288 148.452 128.931 164.522 130.05 169.006C131.169 173.491 129.677 177.601 129.677 178.349C129.677 179.096 126.321 207.124 126.321 207.124C126.321 207.124 119.608 222.073 126.694 220.578C133.779 219.083 131.169 204.135 131.169 204.135L139.746 177.975V155.926L136.39 145.089Z" fill="#FFB8B8"/>
<path d="M165.85 148.078L168.833 150.321L170.325 181.712L181.513 208.619C181.513 208.619 189.717 221.699 184.496 222.073C179.275 222.446 175.919 208.619 175.919 208.619L165.85 182.833L164.358 157.795L165.85 148.078Z" fill="#FFB8B8"/>
<path d="M147.204 150.321C147.204 150.321 154.663 155.553 166.596 153.684C166.596 153.684 169.952 160.411 168.087 164.148C166.223 167.885 170.325 176.854 171.071 177.975C171.817 179.096 180.394 202.266 183.377 227.304C186.36 252.343 194.565 269.533 187.479 271.776C180.394 274.018 165.85 276.634 164.358 274.392C162.867 272.149 160.629 216.467 160.629 216.467L156.527 237.768C156.527 237.768 162.121 274.018 158.019 274.765C153.917 275.513 128.185 273.271 128.931 268.786C129.677 264.302 137.135 240.758 137.135 240.758C137.135 240.758 136.763 193.671 144.221 184.702C144.221 184.702 147.204 179.844 143.102 173.491C139 167.137 139.373 157.047 139.373 157.047C139.373 157.047 142.356 157.047 147.204 150.321Z" fill="#2F2E41"/>
<path d="M140.928 139.845L147.205 153.684L148.696 152.937L142.203 139.584L140.928 139.845Z" fill="#2F2E41"/>
<path d="M161.513 145.167L166.223 155.553L167.353 155.452L166.969 153.684L163.437 145.717C162.982 145.608 162.281 145.429 161.513 145.167Z" fill="#2F2E41"/>
<path d="M146.682 137.312C147.041 138.468 147.732 139.492 148.669 140.257C149.606 141.021 150.747 141.491 151.949 141.608C153.152 141.726 154.362 141.485 155.428 140.916C156.495 140.347 157.37 139.476 157.944 138.411C153.227 132.229 157.273 128.347 164.936 125.409C165.514 124.336 165.759 123.114 165.642 121.9C165.524 120.687 165.049 119.535 164.276 118.593C162.164 118.322 160.018 118.528 157.995 119.195C155.973 119.862 154.124 120.974 152.585 122.45L152.582 122.453L147.137 132.573C146.749 133.293 146.509 134.083 146.431 134.896C146.353 135.71 146.438 136.532 146.682 137.312Z" fill="#2F2E41"/>
<path d="M157.459 132.756C158.18 132.756 158.765 131.752 158.765 130.514C158.765 129.276 158.18 128.272 157.459 128.272C156.739 128.272 156.154 129.276 156.154 130.514C156.154 131.752 156.739 132.756 157.459 132.756Z" fill="#FFB8B8"/>
<path d="M161.349 126.856L172.559 131.945L174.614 127.401C174.26 125.74 173.518 124.187 172.451 122.868L164.735 119.366L161.349 126.856Z" fill="#2F2E41"/>
<path d="M188.294 227.131C191.045 227.131 193.275 224.896 193.275 222.139C193.275 219.382 191.045 217.147 188.294 217.147C185.543 217.147 183.313 219.382 183.313 222.139C183.313 224.896 185.543 227.131 188.294 227.131Z" fill="#9FB8AD"/>
<path d="M28.3719 256.806C30.1698 256.806 31.6274 255.346 31.6274 253.544C31.6274 251.742 30.1698 250.282 28.3719 250.282C26.5739 250.282 25.1164 251.742 25.1164 253.544C25.1164 255.346 26.5739 256.806 28.3719 256.806Z" fill="#FF6584"/>
<path d="M44.8194 270.547H43.8232V307.692H44.8194V270.547Z" fill="#3F3D56"/>
<path d="M44.3215 275.8C47.2164 275.8 49.5632 273.448 49.5632 270.547C49.5632 267.646 47.2164 265.294 44.3215 265.294C41.4265 265.294 39.0797 267.646 39.0797 270.547C39.0797 273.448 41.4265 275.8 44.3215 275.8Z" fill="#3F3D56"/>
<path d="M44.3214 293.44C44.3214 293.44 43.5726 277.301 28.2217 279.177L44.3214 293.44Z" fill="#3F3D56"/>
</svg>
